Coordinates
version=1
nRows=39
nColumns=38
inDegrees=no

Units are S.I. units (second, meters, Newtons, ...)
If the header above contains a line with 'inDegrees', this indicates whether rotational values are in degrees (yes) or radians (no).

endheader
time	pelvis_tilt	pelvis_list	pelvis_rotation	pelvis_tx	pelvis_ty	pelvis_tz	hip_flexion_r	hip_adduction_r	hip_rotation_r	knee_angle_r	ankle_angle_r	subtalar_angle_r	mtp_angle_r	hip_flexion_l	hip_adduction_l	hip_rotation_l	knee_angle_l	ankle_angle_l	subtalar_angle_l	mtp_angle_l	lumbar_extension	lumbar_bending	lumbar_rotation	arm_flex_r	arm_add_r	arm_rot_r	elbow_flex_r	pro_sup_r	wrist_flex_r	wrist_dev_r	arm_flex_l	arm_add_l	arm_rot_l	elbow_flex_l	pro_sup_l	wrist_flex_l	wrist_dev_l
0.59	0.066425	0.0102877	0.0477691	0.189812	1.00495	-0.232675	0.0456975	-0.0162124	-0.124143	0.454794	-0.0504236	0	0	0.318283	-0.0990412	-0.07444	1.34215	-0.182003	0	0	-0.140763	0.0291431	-0.015403	-0.0562185	-0.186961	-0.0796251	0.839885	0.76093	0	0	-0.0646586	-0.177719	0.0237987	0.930792	0.789345	0	0
0.6	0.0668361	0.0174637	0.0431872	0.201661	1.00629	-0.232035	0.02334	-0.0225376	-0.122139	0.440774	-0.044412	0	0	0.335497	-0.0898347	-0.0808652	1.31497	-0.176342	0	0	-0.141121	0.019692	-0.00907367	-0.0471299	-0.187616	-0.0760728	0.846888	0.75978	0	0	-0.0783109	-0.181548	0.0121118	0.931675	0.780388	0	0
0.61	0.0673841	0.0237844	0.0387611	0.213477	1.00733	-0.231427	0.000724466	-0.0279461	-0.118307	0.424671	-0.0447673	0	0	0.351327	-0.0812721	-0.0862145	1.28395	-0.169766	0	0	-0.14216	0.0111963	-0.00333478	-0.0384401	-0.188836	-0.0717064	0.856212	0.76104	0	0	-0.092455	-0.18479	-0.00111829	0.932796	0.784501	0	0
0.62	0.067895	0.0296881	0.0343474	0.22516	1.00806	-0.23094	-0.0217529	-0.0331947	-0.112285	0.408197	-0.0444036	0	0	0.365862	-0.0727006	-0.090501	1.24865	-0.164477	0	0	-0.143478	0.00336254	0.0021519	-0.0299621	-0.190825	-0.0660548	0.867068	0.763157	0	0	-0.105001	-0.186553	-0.0176305	0.931651	0.794911	0	0
0.63	0.0680097	0.0354035	0.0302516	0.236765	1.00846	-0.230606	-0.042156	-0.0389453	-0.110331	0.395885	-0.0394988	0	0	0.379264	-0.0637869	-0.0936543	1.20925	-0.159603	0	0	-0.144437	-0.00398092	0.00798202	-0.022188	-0.192972	-0.0625291	0.879876	0.76221	0	0	-0.115497	-0.188013	-0.0311133	0.929215	0.786089	0	0
0.64	0.0682692	0.041315	0.0258175	0.248294	1.00859	-0.230362	-0.0624974	-0.0453069	-0.106493	0.383453	-0.0362554	0	0	0.390109	-0.0542315	-0.0962086	1.16424	-0.156116	0	0	-0.145872	-0.0114337	0.013349	-0.0140101	-0.195645	-0.0580489	0.893548	0.76304	0	0	-0.127261	-0.189669	-0.0423927	0.92831	0.786639	0	0
0.65	0.0683503	0.045862	0.0217525	0.259869	1.00838	-0.230203	-0.0826482	-0.0504397	-0.104785	0.370726	-0.0356751	0	0	0.399042	-0.0456027	-0.0970811	1.11535	-0.150995	0	0	-0.147141	-0.0173149	0.018014	-0.00598174	-0.198692	-0.0536087	0.908327	0.765659	0	0	-0.140362	-0.191302	-0.0525697	0.929935	0.797222	0	0
0.66	0.0690633	0.0496056	0.0176904	0.271463	1.00796	-0.230141	-0.104022	-0.0546062	-0.0977488	0.358039	-0.0295707	0	0	0.404917	-0.03736	-0.0962518	1.06044	-0.151089	0	0	-0.149321	-0.0222339	0.0225707	0.00169788	-0.202404	-0.0490552	0.923981	0.76421	0	0	-0.152253	-0.191755	-0.0663011	0.932268	0.786497	0	0
0.67	0.0699509	0.0523194	0.0137518	0.28318	1.00728	-0.230103	-0.125436	-0.0578147	-0.0936319	0.345847	-0.0249472	0	0	0.408096	-0.0298763	-0.0937524	1.0014	-0.14889	0	0	-0.151591	-0.0259719	0.0279271	0.0080587	-0.206023	-0.0459816	0.940092	0.765092	0	0	-0.162699	-0.192106	-0.0760014	0.930608	0.786574	0	0
0.68	0.0710329	0.0546862	0.00858595	0.294909	1.00635	-0.230013	-0.147754	-0.0608328	-0.0863356	0.33137	-0.0223382	0	0	0.408135	-0.02292	-0.0911601	0.936473	-0.148453	0	0	-0.154204	-0.0294182	0.0338853	0.0146825	-0.209847	-0.0425279	0.95683	0.767733	0	0	-0.173668	-0.191869	-0.0851002	0.928837	0.799129	0	0
0.69	0.0704487	0.0563807	0.00176849	0.306476	1.00493	-0.22989	-0.16642	-0.064043	-0.0821202	0.320669	-0.0146329	0	0	0.408197	-0.0171741	-0.0893672	0.869464	-0.145285	0	0	-0.155232	-0.0322477	0.0411681	0.0214934	-0.213678	-0.0408142	0.974397	0.76671	0	0	-0.18409	-0.191027	-0.0958519	0.929153	0.7872	0	0
0.7	0.0707008	0.056391	-0.0029384	0.318472	1.00339	-0.229802	-0.187666	-0.0645301	-0.0765644	0.30661	-0.0131175	0	0	0.404778	-0.0129288	-0.0858566	0.798029	-0.143491	0	0	-0.156469	-0.0333963	0.0463499	0.0279516	-0.21684	-0.0400846	0.990679	0.770181	0	0	-0.195072	-0.189694	-0.105972	0.927661	0.803694	0	0
0.71	0.0705194	0.0549892	-0.00644081	0.330728	1.00155	-0.22976	-0.208062	-0.0632843	-0.0757152	0.295191	-0.00751326	0	0	0.400181	-0.0102894	-0.0833164	0.725599	-0.136529	0	0	-0.156819	-0.0329706	0.0514679	0.0331028	-0.219587	-0.0412192	1.0062	0.769312	0	0	-0.204852	-0.188584	-0.115837	0.926787	0.79172	0	0
0.72	0.0700668	0.0532375	-0.010387	0.34296	0.999442	-0.229764	-0.22772	-0.061826	-0.0713215	0.283918	-0.00267028	0	0	0.393745	-0.0080392	-0.0809028	0.650169	-0.129916	0	0	-0.157139	-0.0322578	0.0565312	0.0385961	-0.222057	-0.0425276	1.02023	0.769956	0	0	-0.21417	-0.18678	-0.125301	0.924529	0.791575	0	0
0.73	0.0697047	0.0516507	-0.0142493	0.355289	0.997155	-0.229817	-0.247004	-0.0605993	-0.0657586	0.273432	0.00149703	0	0	0.384692	-0.00536441	-0.0777003	0.571079	-0.12661	0	0	-0.157548	-0.0318418	0.0607788	0.0446581	-0.223837	-0.0443168	1.03302	0.771941	0	0	-0.223646	-0.18441	-0.135362	0.921921	0.802685	0	0
0.74	0.0685673	0.0500469	-0.0181782	0.367829	0.994609	-0.229902	-0.263698	-0.0598491	-0.065847	0.267788	0.00786933	0	0	0.374876	-0.00280054	-0.0772647	0.492655	-0.120143	0	0	-0.156733	-0.0314325	0.0652982	0.0498831	-0.225038	-0.0484059	1.04531	0.771321	0	0	-0.232175	-0.182342	-0.145207	0.919154	0.791106	0	0
0.75	0.0674407	0.048634	-0.0215851	0.380419	0.991934	-0.230116	-0.279372	-0.0594981	-0.0656862	0.264027	0.0115302	0	0	0.363312	0.000297753	-0.0734717	0.413245	-0.116683	0	0	-0.15589	-0.0311661	0.069165	0.0552354	-0.225703	-0.0531661	1.05572	0.77224	0	0	-0.240161	-0.180323	-0.153331	0.915283	0.79112	0	0
0.76	0.0659754	0.0470017	-0.0246031	0.393044	0.989143	-0.230458	-0.293833	-0.0590798	-0.0649739	0.261238	0.0140612	0	0	0.3511	0.00313791	-0.0665155	0.336686	-0.112046	0	0	-0.154437	-0.0304965	0.0720877	0.0612335	-0.226029	-0.0569009	1.06324	0.775292	0	0	-0.247523	-0.178131	-0.159622	0.909571	0.802967	0	0
0.77	0.0649219	0.0460381	-0.027265	0.405755	0.986383	-0.230874	-0.30725	-0.0594814	-0.0656912	0.262061	0.0211731	0	0	0.337496	0.00652204	-0.0518805	0.262376	-0.113037	0	0	-0.153341	-0.0306656	0.0742219	0.06775	-0.225434	-0.0617039	1.06869	0.773419	0	0	-0.253697	-0.175878	-0.167719	0.903603	0.790821	0	0
0.78	0.0637694	0.0456968	-0.0300513	0.418509	0.983704	-0.231348	-0.319051	-0.0608801	-0.0655752	0.264574	0.0242615	0	0	0.326073	0.00969934	-0.0392557	0.198868	-0.111514	0	0	-0.152002	-0.0317738	0.0755627	0.07442	-0.224236	-0.0658993	1.07168	0.776195	0	0	-0.259482	-0.173407	-0.174521	0.894244	0.802439	0	0
0.79	0.0623439	0.0459531	-0.0324402	0.43126	0.981016	-0.231915	-0.328658	-0.0634391	-0.0693666	0.271718	0.0316481	0	0	0.318141	0.0124362	-0.0242049	0.148531	-0.113026	0	0	-0.150181	-0.0335251	0.0761269	0.0812009	-0.22231	-0.070838	1.07326	0.773458	0	0	-0.264155	-0.170929	-0.183224	0.885655	0.790874	0	0
0.8	0.0608522	0.0463755	-0.0348113	0.443981	0.978369	-0.232552	-0.336993	-0.0665552	-0.0718929	0.28019	0.0355407	0	0	0.315813	0.0143673	-0.0145218	0.119137	-0.110437	0	0	-0.148419	-0.0355502	0.0763677	0.0879205	-0.22012	-0.0748595	1.07304	0.773924	0	0	-0.268262	-0.168414	-0.189969	0.876633	0.795134	0	0
0.81	0.0593581	0.0469056	-0.0371055	0.456709	0.975874	-0.233268	-0.343444	-0.0695705	-0.0721494	0.291352	0.037287	0	0	0.319483	0.0163621	-0.0120684	0.112347	-0.105976	0	0	-0.146849	-0.0378402	0.0757729	0.0946961	-0.217766	-0.0781469	1.07198	0.775415	0	0	-0.272563	-0.16636	-0.194405	0.868962	0.80137	0	0
0.82	0.0575947	0.047982	-0.0388166	0.46947	0.97355	-0.234085	-0.346602	-0.0734204	-0.0788997	0.309923	0.0452193	0	0	0.329143	0.0193943	-0.0137547	0.128254	-0.0962398	0	0	-0.14514	-0.0408097	0.0744475	0.101072	-0.214749	-0.0824766	1.06993	0.77384	0	0	-0.27526	-0.163514	-0.203091	0.861577	0.790256	0	0
0.83	0.0565578	0.0493995	-0.040569	0.482344	0.971508	-0.235022	-0.349404	-0.0779592	-0.0827694	0.329358	0.0482868	0	0	0.341839	0.0232742	-0.0163303	0.160644	-0.0920204	0	0	-0.144266	-0.0441001	0.0733733	0.10602	-0.212037	-0.0867194	1.06789	0.774317	0	0	-0.27697	-0.161161	-0.208261	0.85344	0.790129	0	0
0.84	0.0572173	0.0515676	-0.0417781	0.495405	0.969866	-0.236092	-0.353648	-0.0834385	-0.0845676	0.348891	0.0471394	0	0	0.352696	0.0287657	-0.0137763	0.200894	-0.0940437	0	0	-0.145138	-0.0482703	0.0720645	0.109041	-0.209282	-0.0915519	1.06487	0.776259	0	0	-0.277755	-0.159445	-0.2106	0.844506	0.798671	0	0
0.85	0.0583327	0.053593	-0.0429328	0.508753	0.968454	-0.237229	-0.356684	-0.089489	-0.0927782	0.372945	0.048427	0	0	0.36253	0.0344525	-0.0132751	0.249512	-0.0878982	0	0	-0.146148	-0.0523632	0.0714048	0.11015	-0.2066	-0.0987866	1.06124	0.774691	0	0	-0.277935	-0.157887	-0.213453	0.837109	0.789802	0	0
0.86	0.0608383	0.0547529	-0.0437459	0.522579	0.967322	-0.238446	-0.361763	-0.0946077	-0.0974535	0.395608	0.0441945	0	0	0.367504	0.0395936	-0.00674723	0.294941	-0.0840103	0	0	-0.148042	-0.0554966	0.0709528	0.108663	-0.204712	-0.104209	1.05919	0.774726	0	0	-0.27857	-0.156632	-0.213605	0.831322	0.789636	0	0
0.87	0.0639927	0.0555357	-0.0454346	0.536718	0.966369	-0.239711	-0.367081	-0.0999243	-0.0984627	0.418737	0.0374401	0	0	0.368488	0.0444408	-0.000141058	0.331481	-0.082773	0	0	-0.149906	-0.0582415	0.0715098	0.105343	-0.203684	-0.107586	1.05796	0.776523	0	0	-0.279854	-0.155203	-0.212652	0.82871	0.798364	0	0
0.88	0.0665495	0.0568094	-0.0483128	0.55108	0.965541	-0.240984	-0.36943	-0.106858	-0.100753	0.44663	0.0323162	0	0	0.366603	0.0497627	0.00385618	0.360203	-0.0750319	0	0	-0.150609	-0.06165	0.0733236	0.100517	-0.202603	-0.111513	1.05752	0.773924	0	0	-0.281317	-0.154121	-0.212281	0.829522	0.785539	0	0
0.89	0.0688417	0.0588318	-0.0518595	0.565667	0.96499	-0.24229	-0.369984	-0.115019	-0.0995512	0.47515	0.0216194	0	0	0.35937	0.0551141	0.00939584	0.37148	-0.0841122	0	0	-0.150486	-0.0660436	0.0748889	0.0952557	-0.201285	-0.113968	1.05421	0.775314	0	0	-0.283349	-0.152591	-0.211917	0.829278	0.794431	0	0
0.9	0.0695288	0.0618994	-0.0574497	0.580476	0.964643	-0.243487	-0.365471	-0.125718	-0.0992191	0.508722	0.0114671	0	0	0.348821	0.0589408	0.0066305	0.369243	-0.107056	0	0	-0.147826	-0.071653	0.0788912	0.0881037	-0.199628	-0.118301	1.04984	0.773234	0	0	-0.285057	-0.151616	-0.210774	0.829334	0.784948	0	0
0.91	0.0696739	0.0640749	-0.0647788	0.595506	0.964552	-0.244517	-0.357792	-0.13606	-0.0951306	0.544711	-0.00267475	0	0	0.336185	0.0593133	0.00173361	0.364185	-0.131687	0	0	-0.143807	-0.0763828	0.0837305	0.0807205	-0.197865	-0.121361	1.04348	0.772782	0	0	-0.287459	-0.150129	-0.209776	0.82955	0.78469	0	0
0.92	0.0696602	0.0656301	-0.0728421	0.610615	0.964648	-0.24544	-0.346061	-0.146871	-0.0931659	0.585495	-0.0240666	0	0	0.324261	0.0582115	-0.00291433	0.36345	-0.153927	0	0	-0.139081	-0.0803577	0.0887535	0.0734232	-0.196068	-0.123231	1.03565	0.77372	0	0	-0.290121	-0.148796	-0.20752	0.830302	0.793164	0	0
0.93	0.0695066	0.0661841	-0.08099	0.625591	0.964843	-0.246383	-0.331015	-0.156894	-0.0856438	0.631403	-0.0396152	0	0	0.316432	0.056791	-0.00827725	0.374982	-0.159502	0	0	-0.134287	-0.0829652	0.0936138	0.0659614	-0.194612	-0.124623	1.02756	0.771778	0	0	-0.292295	-0.147658	-0.205466	0.832518	0.784361	0	0
0.94	0.0691027	0.0674504	-0.0884743	0.640393	0.965148	-0.247507	-0.311529	-0.168901	-0.0827371	0.681667	-0.0633947	0	0	0.313005	0.0577553	-0.0148833	0.394392	-0.163186	0	0	-0.129565	-0.0858986	0.0972282	0.0584859	-0.193289	-0.125428	1.01872	0.771252	0	0	-0.293538	-0.146557	-0.202102	0.834357	0.784482	0	0
0.95	0.0695063	0.0702068	-0.0934218	0.654954	0.965703	-0.248982	-0.289346	-0.183067	-0.085134	0.734494	-0.0970857	0	0	0.311895	0.0623476	-0.0191024	0.419661	-0.163711	0	0	-0.12627	-0.089948	0.0977327	0.0515348	-0.191817	-0.125932	1.00932	0.772584	0	0	-0.293456	-0.145619	-0.198231	0.835009	0.795977	0	0
0.96	0.0704004	0.0755135	-0.0968083	0.66912	0.966446	-0.250754	-0.264282	-0.199452	-0.083064	0.791783	-0.122553	0	0	0.312609	0.0708697	-0.0222758	0.449464	-0.158753	0	0	-0.124374	-0.0963654	0.0967996	0.0444515	-0.190104	-0.127575	1.00041	0.770332	0	0	-0.29081	-0.145587	-0.194572	0.836588	0.784339	0	0
0.97	0.0711988	0.0834379	-0.0972291	0.68293	0.967322	-0.25289	-0.235895	-0.218453	-0.0851232	0.849497	-0.162505	0	0	0.313397	0.0840137	-0.0170524	0.479553	-0.14885	0	0	-0.122982	-0.105065	0.0925247	0.0380188	-0.187721	-0.129366	0.989831	0.771308	0	0	-0.286975	-0.146515	-0.187415	0.838162	0.796703	0	0
